<svg id="Layer_1" data-name="Layer 1" xmlns="http://www.w3.org/2000/svg" viewBox="0 0 1366 150"><defs><style>.cls-1{fill:#fff;}</style></defs><title>An Avalanche Company SVG</title><path class="cls-1" d="M11.9,96.46l-5,20H4.49L25,31.4h3.76l21,85.08H47.09l-5-20ZM12.38,94H41.63L26.82,34.56Z"/><path class="cls-1" d="M85.93,116.48H83.38v-85h3.76L117,111V31.52h2.55v85h-3.28L85.93,35.41Z"/><path class="cls-1" d="M239.82,116.48H226.35L224,101.07H207.66l-2.31,15.41H193.09l13.59-85h19.54ZM209.36,89.54h12.87l-6.43-43Z"/><path class="cls-1" d="M287.39,100.83l10.2-69.3h12.26l-13.11,85H276.83l-13.11-85H277.2Z"/><path class="cls-1" d="M380.48,116.48H367l-2.31-15.41H348.32L346,116.48H333.76l13.59-85h19.54ZM350,89.54h12.87l-6.43-43Z"/><path class="cls-1" d="M410.94,31.52h13.35v72.82h22v12.14H410.94Z"/><path class="cls-1" d="M519.57,116.48H506.09l-2.31-15.41H487.4l-2.31,15.41H472.84l13.59-85H506ZM489.1,89.54H502l-6.43-43Z"/><path class="cls-1" d="M561.92,54.95v61.53h-12v-85h16.75l13.71,50.85V31.52h11.89v85H578.55Z"/><path class="cls-1" d="M664.84,84.8V96.09c0,13.59-6.8,21.36-19.9,21.36S625,109.68,625,96.09V51.91c0-13.59,6.8-21.36,19.9-21.36s19.9,7.77,19.9,21.36v8.25H652.22v-9.1c0-6.07-2.67-8.37-6.92-8.37s-6.92,2.31-6.92,8.37V96.94c0,6.07,2.67,8.25,6.92,8.25s6.92-2.18,6.92-8.25V84.8Z"/><path class="cls-1" d="M710.59,116.48H697.24v-85h13.35V67.93h15.17V31.52h13.59v85H725.76V80.07H710.59Z"/><path class="cls-1" d="M786.69,67.33H805V79.46H786.69v24.88h23.06v12.14H773.34v-85h36.41V43.66H786.69Z"/><path class="cls-1" d="M920.8,52.4V59h-2.67V52.28c0-10.32-3.88-18.93-15-18.93S887.91,42,887.91,52.28V95.73c0,10.32,3.88,18.81,15.17,18.81s15-8.5,15-18.81V86.38h2.67v9.22c0,11.77-4.85,21.48-17.84,21.48s-17.72-9.71-17.72-21.48V52.4c0-11.77,4.85-21.48,17.72-21.48S920.8,40.63,920.8,52.4Z"/><path class="cls-1" d="M954.42,52.4c0-11.89,5.1-21.48,18-21.48,13.11,0,18.21,9.59,18.21,21.48V95.61c0,11.89-5.1,21.48-18.21,21.48-12.87,0-18-9.59-18-21.48Zm2.67,43.33c0,10.44,4,18.93,15.29,18.93s15.54-8.5,15.54-18.93V52.28c0-10.44-4.13-18.93-15.54-18.93s-15.29,8.5-15.29,18.93Z"/><path class="cls-1" d="M1050.9,116.24h-3l-21-80.71v81h-2.43v-85h4.13l20.88,80.59,20.88-80.59h4.13v85h-2.67v-81Z"/><path class="cls-1" d="M1125.18,31.52c13.11,0,17.6,8.62,17.6,20.51v8.5c0,13.47-6.07,19.9-19.54,19.9H1111.1v36h-2.67v-85Zm-1.94,46.36c11.89,0,16.87-5.22,16.87-17.23V51.91c0-10.44-3.52-17.84-14.93-17.84H1111.1V77.89Z"/><path class="cls-1" d="M1181.73,96.46l-5,20h-2.43l20.51-85.08h3.76l21,85.08h-2.67l-5-20Zm.49-2.43h29.25l-14.81-59.47Z"/><path class="cls-1" d="M1255.77,116.48h-2.55v-85H1257l29.86,79.5V31.52h2.55v85h-3.28l-30.34-81.07Z"/><path class="cls-1" d="M1342.66,82.13l-19.78-50.61h2.67l18.57,47,18.57-47h2.79l-20.15,50.61v34.35h-2.67Z"/></svg>