<?xml version="1.0" encoding="utf-8"?>
<!-- Generator: Adobe Illustrator 21.0.0, SVG Export Plug-In . SVG Version: 6.00 Build 0)  -->
<svg version="1.1" id="Layer_1" xmlns="http://www.w3.org/2000/svg" xmlns:xlink="http://www.w3.org/1999/xlink" x="0px" y="0px"
	 viewBox="0 0 500 500" style="enable-background:new 0 0 500 500;" xml:space="preserve">
<style type="text/css">
	.st0{fill:#58595B;}
	.st1{fill:#B3B3B3;}
	.st2{fill:#333333;}
</style>
<g>
	<path class="st0" d="M250,0.2C112.1,0.2,0.2,112,0.2,250S112.1,499.8,250,499.8S499.8,387.9,499.8,250S387.9,0.2,250,0.2z M250,488
		C118.5,488,11.9,381.5,11.9,250S118.5,11.9,250,11.9c131.5,0,238.1,106.6,238.1,238.1S381.5,488,250,488z"/>
	<path class="st1" d="M250,11.9C118.5,11.9,11.9,118.5,11.9,250S118.5,488,250,488c131.5,0,238.1-106.6,238.1-238.1
		S381.5,11.9,250,11.9z M332.5,387l-18.7-50.4H186.3L167.5,387H95.8L145,259.3h-28.8v-18.6h36l8.3-21.7h-44.3v-18.6h51.5l42.7-110.7
		h79.3l42.7,110.7h51.5V219h-44.3l8.3,21.7h36v18.6H355L404.2,387H332.5z"/>
	<polygon class="st1" points="273.9,219 226.1,219 218.2,240.7 281.8,240.7 	"/>
	<polygon class="st1" points="250,153 232.8,200.5 267.2,200.5 	"/>
	<polygon class="st1" points="288.5,259.3 211.5,259.3 203.6,280.9 296.4,280.9 	"/>
	<path class="st2" d="M355,259.3h28.8v-18.6h-36l-8.3-21.7h44.3v-18.6h-51.5L289.7,89.7h-79.3l-42.7,110.7h-51.5V219h44.3l-8.3,21.7
		h-36v18.6H145L95.8,387h71.8l18.7-50.4h127.5l18.7,50.4h71.8L355,259.3z M250,153l17.2,47.4h-34.4L250,153z M226.1,219h47.8
		l7.9,21.7h-63.5L226.1,219z M203.6,280.9l7.8-21.7h77l7.8,21.7H203.6z"/>
</g>
</svg>
