<svg id="Layer_1" data-name="Layer 1" xmlns="http://www.w3.org/2000/svg" viewBox="0 0 1366 200"><defs><style>.cls-1{fill:none;stroke:#fff200;stroke-miterlimit:10;stroke-width:4px;}</style></defs><title>Landslide SVG</title><path class="cls-1" d="M31.41,162.73V74.09H5.18V36.5H72.49v88.64h68.36v37.59Z"/><path class="cls-1" d="M169.67,162.73,211.19,36.5h62.68l42.22,126.23H268.36l-8-22.73H222.9l-8,22.73Zm73-98.26-18.1,50h34.79Z"/><path class="cls-1" d="M350.15,162.73V36.5h41.09L428.82,83.7V36.5h41.09V162.73H428.82l-37.59-47.21v47.21Z"/><path class="cls-1" d="M511,162.73V36.5h74.48a81,81,0,0,1,26.66,4,59.86,59.86,0,0,1,19.49,10.84q8,6.82,13.24,18.44t5.29,30.25q-1,17.22-5.77,29.28t-12.76,19.06a55.9,55.9,0,0,1-19.45,10.84q-11.5,3.85-28.8,3.5Zm42.13-94.93v63.46h24q8.13,0,13.11-3.45a27.49,27.49,0,0,0,8.13-8.83q3.15-5.38,4-19.36-.26-12.76-3.54-18.84a26.14,26.14,0,0,0-8.44-9.53q-5.16-3.45-13.46-3.45Z"/><path class="cls-1" d="M791.36,74.09H760.59q-22.47-.7-6.64,12.41,28.32,24.83,27.8,48.25t-27.8,28H686.81V125.14h26.58q24.74.7,6.29-13.81-30.42-28-25.88-51.4T722.47,36.5h68.88Z"/><path class="cls-1" d="M827.08,162.73V36.5h41.09v88.64h68.36v37.59Z"/><path class="cls-1" d="M975.83,36.5h41.09V162.73H975.83Z"/><path class="cls-1" d="M1061.46,162.73V36.5h74.48a81,81,0,0,1,26.66,4,59.86,59.86,0,0,1,19.49,10.84q8,6.82,13.24,18.44t5.29,30.25q-1,17.22-5.77,29.28t-12.76,19.06a55.9,55.9,0,0,1-19.45,10.84q-11.5,3.85-28.8,3.5Zm42.13-94.93v63.46h24q8.13,0,13.11-3.45a27.49,27.49,0,0,0,8.13-8.83q3.15-5.38,4-19.36-.26-12.76-3.54-18.84a26.14,26.14,0,0,0-8.44-9.53q-5.16-3.45-13.46-3.45Z"/><path class="cls-1" d="M1242.55,162.73V74.09h-26.23V36.5h134.45V74.09h-67.14V88.6H1327v22h-43.36v14.51h77.8v37.59Z"/></svg>